<?xml version="1.0" encoding="UTF-8" standalone="no"?>
<svg
   width="71"
   height="18"
   viewBox="0 0 71 18"
   fill="none"
   version="1.1"
   id="svg6"
   sodipodi:docname="logo-text.svg"
   inkscape:version="1.4.2 (f4327f4, 2025-05-13)"
   xmlns:inkscape="http://www.inkscape.org/namespaces/inkscape"
   xmlns:sodipodi="http://sodipodi.sourceforge.net/DTD/sodipodi-0.dtd"
   xmlns="http://www.w3.org/2000/svg"
   xmlns:svg="http://www.w3.org/2000/svg">
  <sodipodi:namedview
     id="namedview6"
     pagecolor="#ffffff"
     bordercolor="#000000"
     borderopacity="0.25"
     inkscape:showpageshadow="2"
     inkscape:pageopacity="0.0"
     inkscape:pagecheckerboard="0"
     inkscape:deskcolor="#d1d1d1"
     inkscape:zoom="24.971831"
     inkscape:cx="60.568246"
     inkscape:cy="8.9901297"
     inkscape:window-width="1920"
     inkscape:window-height="991"
     inkscape:window-x="-9"
     inkscape:window-y="-9"
     inkscape:window-maximized="1"
     inkscape:current-layer="svg6" />
  <path
     d="M5.232 13L3.312 9.664H2.268V13H0.9V4.66H3.78C4.42 4.66 4.96 4.772 5.4 4.996C5.848 5.22 6.18 5.52 6.396 5.896C6.62 6.272 6.732 6.692 6.732 7.156C6.732 7.7 6.572 8.196 6.252 8.644C5.94 9.084 5.456 9.384 4.8 9.544L6.864 13H5.232ZM2.268 8.572H3.78C4.292 8.572 4.676 8.444 4.932 8.188C5.196 7.932 5.328 7.588 5.328 7.156C5.328 6.724 5.2 6.388 4.944 6.148C4.688 5.9 4.3 5.776 3.78 5.776H2.268V8.572ZM14.542 9.532C14.542 9.78 14.526 10.004 14.494 10.204H9.44203C9.48203 10.732 9.67803 11.156 10.03 11.476C10.382 11.796 10.814 11.956 11.326 11.956C12.062 11.956 12.582 11.648 12.886 11.032H14.362C14.162 11.64 13.798 12.14 13.27 12.532C12.75 12.916 12.102 13.108 11.326 13.108C10.694 13.108 10.126 12.968 9.62203 12.688C9.12603 12.4 8.73403 12 8.44603 11.488C8.16603 10.968 8.02603 10.368 8.02603 9.688C8.02603 9.008 8.16203 8.412 8.43403 7.9C8.71403 7.38 9.10203 6.98 9.59803 6.7C10.102 6.42 10.678 6.28 11.326 6.28C11.95 6.28 12.506 6.416 12.994 6.688C13.482 6.96 13.862 7.344 14.134 7.84C14.406 8.328 14.542 8.892 14.542 9.532ZM13.114 9.1C13.106 8.596 12.926 8.192 12.574 7.888C12.222 7.584 11.786 7.432 11.266 7.432C10.794 7.432 10.39 7.584 10.054 7.888C9.71803 8.184 9.51803 8.588 9.45403 9.1H13.114ZM16.4403 13.084C16.1923 13.084 15.9843 13 15.8163 12.832C15.6483 12.664 15.5643 12.456 15.5643 12.208C15.5643 11.96 15.6483 11.752 15.8163 11.584C15.9843 11.416 16.1923 11.332 16.4403 11.332C16.6803 11.332 16.8843 11.416 17.0523 11.584C17.2203 11.752 17.3043 11.96 17.3043 12.208C17.3043 12.456 17.2203 12.664 17.0523 12.832C16.8843 13 16.6803 13.084 16.4403 13.084ZM16.4403 8.044C16.1923 8.044 15.9843 7.96 15.8163 7.792C15.6483 7.624 15.5643 7.416 15.5643 7.168C15.5643 6.92 15.6483 6.712 15.8163 6.544C15.9843 6.376 16.1923 6.292 16.4403 6.292C16.6803 6.292 16.8843 6.376 17.0523 6.544C17.2203 6.712 17.3043 6.92 17.3043 7.168C17.3043 7.416 17.2203 7.624 17.0523 7.792C16.8843 7.96 16.6803 8.044 16.4403 8.044ZM21.5537 4.66C22.4417 4.66 23.2177 4.832 23.8817 5.176C24.5537 5.512 25.0697 6 25.4297 6.64C25.7977 7.272 25.9817 8.012 25.9817 8.86C25.9817 9.708 25.7977 10.444 25.4297 11.068C25.0697 11.692 24.5537 12.172 23.8817 12.508C23.2177 12.836 22.4417 13 21.5537 13H18.8297V4.66H21.5537ZM21.5537 11.884C22.5297 11.884 23.2777 11.62 23.7977 11.092C24.3177 10.564 24.5777 9.82 24.5777 8.86C24.5777 7.892 24.3177 7.136 23.7977 6.592C23.2777 6.048 22.5297 5.776 21.5537 5.776H20.1977V11.884H21.5537ZM28.0335 5.512C27.7855 5.512 27.5775 5.428 27.4095 5.26C27.2415 5.092 27.1575 4.884 27.1575 4.636C27.1575 4.388 27.2415 4.18 27.4095 4.012C27.5775 3.844 27.7855 3.76 28.0335 3.76C28.2735 3.76 28.4775 3.844 28.6455 4.012C28.8135 4.18 28.8975 4.388 28.8975 4.636C28.8975 4.884 28.8135 5.092 28.6455 5.26C28.4775 5.428 28.2735 5.512 28.0335 5.512ZM28.7055 6.388V13H27.3375V6.388H28.7055ZM32.9016 13.108C32.3816 13.108 31.9136 13.016 31.4976 12.832C31.0896 12.64 30.7656 12.384 30.5256 12.064C30.2856 11.736 30.1576 11.372 30.1416 10.972H31.5576C31.5816 11.252 31.7136 11.488 31.9536 11.68C32.2016 11.864 32.5096 11.956 32.8776 11.956C33.2616 11.956 33.5576 11.884 33.7656 11.74C33.9816 11.588 34.0896 11.396 34.0896 11.164C34.0896 10.916 33.9696 10.732 33.7296 10.612C33.4976 10.492 33.1256 10.36 32.6136 10.216C32.1176 10.08 31.7136 9.948 31.4016 9.82C31.0896 9.692 30.8176 9.496 30.5856 9.232C30.3616 8.968 30.2496 8.62 30.2496 8.188C30.2496 7.836 30.3536 7.516 30.5616 7.228C30.7696 6.932 31.0656 6.7 31.4496 6.532C31.8416 6.364 32.2896 6.28 32.7936 6.28C33.5456 6.28 34.1496 6.472 34.6056 6.856C35.0696 7.232 35.3176 7.748 35.3496 8.404H33.9816C33.9576 8.108 33.8376 7.872 33.6216 7.696C33.4056 7.52 33.1136 7.432 32.7456 7.432C32.3856 7.432 32.1096 7.5 31.9176 7.636C31.7256 7.772 31.6296 7.952 31.6296 8.176C31.6296 8.352 31.6936 8.5 31.8216 8.62C31.9496 8.74 32.1056 8.836 32.2896 8.908C32.4736 8.972 32.7456 9.056 33.1056 9.16C33.5856 9.288 33.9776 9.42 34.2816 9.556C34.5936 9.684 34.8616 9.876 35.0856 10.132C35.3096 10.388 35.4256 10.728 35.4336 11.152C35.4336 11.528 35.3296 11.864 35.1216 12.16C34.9136 12.456 34.6176 12.688 34.2336 12.856C33.8576 13.024 33.4136 13.108 32.9016 13.108ZM36.4557 9.688C36.4557 9.008 36.5917 8.412 36.8637 7.9C37.1437 7.38 37.5277 6.98 38.0157 6.7C38.5037 6.42 39.0637 6.28 39.6957 6.28C40.4957 6.28 41.1557 6.472 41.6757 6.856C42.2037 7.232 42.5597 7.772 42.7437 8.476H41.2677C41.1477 8.148 40.9557 7.892 40.6917 7.708C40.4277 7.524 40.0957 7.432 39.6957 7.432C39.1357 7.432 38.6877 7.632 38.3517 8.032C38.0237 8.424 37.8597 8.976 37.8597 9.688C37.8597 10.4 38.0237 10.956 38.3517 11.356C38.6877 11.756 39.1357 11.956 39.6957 11.956C40.4877 11.956 41.0117 11.608 41.2677 10.912H42.7437C42.5517 11.584 42.1917 12.12 41.6637 12.52C41.1357 12.912 40.4797 13.108 39.6957 13.108C39.0637 13.108 38.5037 12.968 38.0157 12.688C37.5277 12.4 37.1437 12 36.8637 11.488C36.5917 10.968 36.4557 10.368 36.4557 9.688Z"
     fill="white"
     id="path1"
     style="fill:#000000;fill-opacity:1" />
  <path
     d="M55.456 11.776L57.328 6.388H58.78L56.26 13H54.628L52.12 6.388H53.584L55.456 11.776ZM65.8741 9.532C65.8741 9.78 65.8581 10.004 65.8261 10.204H60.7741C60.8141 10.732 61.0101 11.156 61.3621 11.476C61.7141 11.796 62.1461 11.956 62.6581 11.956C63.3941 11.956 63.9141 11.648 64.2181 11.032H65.6941C65.4941 11.64 65.1301 12.14 64.6021 12.532C64.0821 12.916 63.4341 13.108 62.6581 13.108C62.0261 13.108 61.4581 12.968 60.9541 12.688C60.4581 12.4 60.0661 12 59.7781 11.488C59.4981 10.968 59.3581 10.368 59.3581 9.688C59.3581 9.008 59.4941 8.412 59.7661 7.9C60.0461 7.38 60.4341 6.98 60.9301 6.7C61.4341 6.42 62.0101 6.28 62.6581 6.28C63.2821 6.28 63.8381 6.416 64.3261 6.688C64.8141 6.96 65.1941 7.344 65.4661 7.84C65.7381 8.328 65.8741 8.892 65.8741 9.532ZM64.4461 9.1C64.4381 8.596 64.2581 8.192 63.9061 7.888C63.5541 7.584 63.1181 7.432 62.5981 7.432C62.1261 7.432 61.7221 7.584 61.3861 7.888C61.0501 8.184 60.8501 8.588 60.7861 9.1H64.4461ZM68.5883 7.348C68.7883 7.012 69.0523 6.752 69.3803 6.568C69.7163 6.376 70.1123 6.28 70.5683 6.28V7.696H70.2203C69.6843 7.696 69.2763 7.832 68.9963 8.104C68.7243 8.376 68.5883 8.848 68.5883 9.52V13H67.2203V6.388H68.5883V7.348Z"
     fill="white"
     id="path2"
     style="fill:#000000;fill-opacity:1" />
  <g
     clip-path="url(#clip0_7_134)"
     id="g6">
    <mask
       id="mask0_7_134"
       style="mask-type:luminance"
       maskUnits="userSpaceOnUse"
       x="19"
       y="-50"
       width="73"
       height="73">
      <path
         d="M91.8716 -49.3404H19.7649V22.7664H91.8716V-49.3404Z"
         fill="white"
         id="path3" />
    </mask>
    <g
       mask="url(#mask0_7_134)"
       id="g5">
      <path
         d="M49.8693 8.04633C49.8669 8.04719 47.9411 8.76036 47.3674 9.1928C46.7937 9.62527 46.1316 11.9511 46.1309 11.9536C46.1332 11.9528 48.059 11.2397 48.6327 10.8073C49.2064 10.3748 49.8686 8.04885 49.8693 8.04633ZM48.0167 9.53567C48.0699 9.53566 48.1225 9.54613 48.1716 9.56647C48.2207 9.58681 48.2653 9.61663 48.3029 9.65421C48.3405 9.6918 48.3703 9.73642 48.3907 9.78553C48.411 9.83463 48.4215 9.88727 48.4215 9.94043C48.4215 9.99358 48.411 10.0462 48.3907 10.0953C48.3703 10.1444 48.3405 10.1891 48.3029 10.2266C48.2653 10.2642 48.2207 10.294 48.1716 10.3144C48.1225 10.3347 48.0699 10.3452 48.0167 10.3452C47.9636 10.3452 47.9109 10.3347 47.8618 10.3144C47.8127 10.294 47.7681 10.2642 47.7305 10.2266C47.6929 10.1891 47.6631 10.1444 47.6428 10.0953C47.6224 10.0462 47.6119 9.99358 47.6119 9.94043C47.6119 9.88727 47.6224 9.83463 47.6428 9.78553C47.6631 9.73642 47.6929 9.6918 47.7305 9.65421C47.7681 9.61663 47.8127 9.58681 47.8618 9.56647C47.9109 9.54613 47.9636 9.53566 48.0167 9.53567Z"
         fill="#7DF877"
         id="path4" />
      <path
         d="M47.8596 5.99997C47.7901 6.00302 47.7206 6.00788 47.6514 6.01455C47.5583 6.02112 47.4654 6.03093 47.373 6.04398C47.2819 6.06005 47.1913 6.07927 47.1015 6.10161C47.0096 6.12113 46.9184 6.14389 46.8281 6.16982C46.7401 6.19839 46.6532 6.23 46.5675 6.26458C46.4794 6.29664 46.3925 6.33178 46.3068 6.36993C46.2239 6.41043 46.1423 6.45378 46.0623 6.4999C45.9791 6.54414 45.8974 6.59129 45.8175 6.64128C45.7409 6.69301 45.6661 6.74737 45.5933 6.80426C45.5177 6.8592 45.4439 6.91677 45.3723 6.97686C45.303 7.03924 45.2359 7.10401 45.1711 7.17106C45.104 7.23585 45.0393 7.30296 44.9769 7.37227C44.9168 7.44391 44.8592 7.51762 44.8043 7.59329C44.7474 7.66611 44.693 7.74088 44.6413 7.81746C44.5912 7.8976 44.544 7.97948 44.4997 8.06296C44.4537 8.1426 44.4106 8.22379 44.3702 8.30639C44.3319 8.39236 44.2966 8.47966 44.2643 8.56812C44.2299 8.65365 44.1983 8.74035 44.1699 8.82805C44.1439 8.91837 44.1212 9.00956 44.1016 9.10147C44.0793 9.19127 44.0601 9.28183 44.044 9.37296C44.031 9.46538 44.0211 9.55822 44.0146 9.65133C44.0079 9.7206 44.0031 9.79003 44 9.85955H44.483V10.1404H44C44.0031 10.2099 44.0079 10.2793 44.0146 10.3486C44.0211 10.4417 44.031 10.5346 44.044 10.627C44.0601 10.7181 44.0793 10.8087 44.1016 10.8985C44.1212 10.9904 44.1439 11.0816 44.1699 11.1719C44.1983 11.2596 44.2299 11.3463 44.2643 11.4318C44.2966 11.5203 44.3319 11.6076 44.3702 11.6935C44.4106 11.7762 44.4537 11.8573 44.4997 11.937C44.544 12.0205 44.5912 12.1023 44.6413 12.1825C44.693 12.2591 44.7474 12.3338 44.8043 12.4067C44.8592 12.4823 44.9168 12.556 44.9769 12.6277C45.0393 12.697 45.104 12.7641 45.1711 12.8289C45.2359 12.8959 45.303 12.9607 45.3723 13.0231C45.4439 13.0832 45.5177 13.1407 45.5933 13.1957C45.6661 13.2526 45.7409 13.3069 45.8175 13.3587C45.8976 13.4088 45.9795 13.456 46.063 13.5003C46.1426 13.5462 46.2238 13.5894 46.3064 13.6297C46.3924 13.6681 46.4797 13.7034 46.5681 13.7356C46.6537 13.7701 46.7404 13.8016 46.8281 13.8301C46.9184 13.8561 47.0096 13.8788 47.1015 13.8983C47.1913 13.9207 47.2819 13.9399 47.373 13.956C47.4654 13.969 47.5583 13.9788 47.6514 13.9854C47.7206 13.9921 47.7901 13.9969 47.8596 14V13.517H48.1404V14C48.2099 13.9969 48.2794 13.9921 48.3486 13.9854C48.4417 13.9788 48.5346 13.969 48.627 13.956C48.7181 13.9399 48.8087 13.9207 48.8985 13.8983C48.9904 13.8788 49.0816 13.8561 49.1719 13.8301C49.2596 13.8016 49.3463 13.7701 49.4319 13.7356C49.5203 13.7034 49.6076 13.6681 49.6936 13.6297C49.7762 13.5894 49.8574 13.5462 49.937 13.5003C50.0205 13.456 50.1024 13.4088 50.1825 13.3587C50.2591 13.3069 50.3339 13.2526 50.4067 13.1957C50.4823 13.1407 50.5561 13.0832 50.6277 13.0231C50.697 12.9607 50.7641 12.8959 50.8289 12.8289C50.896 12.7641 50.9607 12.697 51.0231 12.6277C51.0832 12.556 51.1408 12.4823 51.1957 12.4067C51.2526 12.3338 51.307 12.2591 51.3587 12.1825C51.4088 12.1023 51.456 12.0205 51.5003 11.937C51.5463 11.8573 51.5894 11.7762 51.6298 11.6935C51.6681 11.6076 51.7034 11.5203 51.7357 11.4318C51.7701 11.3463 51.8017 11.2596 51.8301 11.1719C51.8561 11.0816 51.8788 10.9904 51.8984 10.8985C51.9207 10.8087 51.9399 10.7181 51.956 10.627C51.969 10.5346 51.9789 10.4417 51.9854 10.3486C51.9921 10.2793 51.9969 10.2099 52 10.1404H51.517V9.85955H52C51.9969 9.79003 51.9921 9.7206 51.9854 9.65133C51.9789 9.55822 51.969 9.46538 51.956 9.37296C51.9399 9.28183 51.9207 9.19127 51.8984 9.10147C51.8788 9.00956 51.8561 8.91837 51.8301 8.82805C51.8016 8.74011 51.77 8.65319 51.7354 8.56743C51.7033 8.47935 51.6682 8.39242 51.63 8.30681C51.5895 8.22382 51.5462 8.14226 51.5001 8.06227C51.4558 7.97903 51.4087 7.89738 51.3587 7.81746C51.307 7.74088 51.2526 7.66611 51.1957 7.59329C51.1408 7.51762 51.0832 7.44391 51.0231 7.37227C50.9607 7.30296 50.896 7.23585 50.8289 7.17106C50.7641 7.10401 50.697 7.03924 50.6277 6.97686C50.5561 6.91677 50.4823 6.8592 50.4067 6.80426C50.3339 6.74737 50.2591 6.69301 50.1825 6.64128C50.1024 6.59119 50.0205 6.54394 49.937 6.49963C49.8574 6.45371 49.7762 6.41054 49.6936 6.37021C49.6076 6.33185 49.5203 6.29652 49.4319 6.26431C49.3463 6.22983 49.2596 6.19832 49.1719 6.16982C49.0816 6.14389 48.9904 6.12113 48.8985 6.10161C48.8087 6.07927 48.7181 6.06005 48.627 6.04398C48.5346 6.03093 48.4417 6.02112 48.3486 6.01455C48.2794 6.00788 48.2099 6.00302 48.1404 5.99997V6.48298H47.8596V5.99997ZM48 6.9268C48.4036 6.9268 48.8032 7.00628 49.1761 7.16072C49.5489 7.31516 49.8877 7.54153 50.1731 7.8269C50.4584 8.11227 50.6848 8.45106 50.8392 8.82391C50.9937 9.19677 51.0732 9.5964 51.0732 9.99997C51.0732 10.4035 50.9937 10.8032 50.8392 11.176C50.6848 11.5489 50.4584 11.8877 50.1731 12.173C49.8877 12.4584 49.5489 12.6848 49.1761 12.8392C48.8032 12.9937 48.4036 13.0731 48 13.0731C47.8658 13.0732 47.7318 13.0644 47.5988 13.0469C47.3326 13.0118 47.0721 12.942 46.824 12.8392C46.7 12.7879 46.5795 12.7285 46.4633 12.6614C45.9962 12.3917 45.6083 12.0037 45.3386 11.5366C45.3386 11.5366 45.3386 11.5365 45.3386 11.5365C45.0689 11.0693 44.9269 10.5394 44.9268 9.99997C44.9269 9.46053 45.0689 8.93061 45.3386 8.46345C45.6083 7.99626 45.9963 7.6083 46.4634 7.33856C46.9306 7.06882 47.4605 6.92681 48 6.9268Z"
         fill="#7DF877"
         id="path5" />
    </g>
  </g>
  <defs
     id="defs6">
    <clipPath
       id="clip0_7_134">
      <rect
         width="8"
         height="8"
         fill="white"
         transform="translate(44 6)"
         id="rect6" />
    </clipPath>
  </defs>
</svg>
